<?xml version="1.0" standalone="no"?>
<!DOCTYPE svg PUBLIC "-//W3C//DTD SVG 20010904//EN"
 "http://www.w3.org/TR/2001/REC-SVG-20010904/DTD/svg10.dtd">
<svg version="1.0" xmlns="http://www.w3.org/2000/svg"
 width="225.000000pt" height="225.000000pt" viewBox="0 0 225.000000 225.000000"
 preserveAspectRatio="xMidYMid meet">

<g transform="translate(0.000000,225.000000) scale(0.100000,-0.100000)"
fill="#000000" stroke="none">
<path d="M0 1390 c0 -473 3 -860 8 -860 4 0 13 9 20 20 16 27 32 25 33 -2 l0
-23 9 23 c5 12 11 22 13 22 3 0 6 -28 7 -64 1 -18 1 -18 15 0 8 11 15 25 15
32 0 6 3 12 8 12 4 0 12 10 17 22 18 39 36 34 20 -6 -8 -20 -16 -47 -17 -61
-1 -14 -6 -25 -11 -25 -4 0 -6 -4 -3 -9 12 -18 -40 -141 -59 -141 -8 0 -15 -4
-15 -10 0 -5 -4 -10 -10 -10 -5 0 -10 11 -10 24 0 14 -4 28 -10 31 -5 3 -10
-3 -10 -14 0 -11 -5 -23 -10 -26 -6 -4 -10 -57 -10 -127 0 -67 3 -119 6 -115
4 3 13 -1 21 -9 8 -8 19 -12 24 -9 5 4 9 -3 9 -14 0 -11 5 -23 10 -26 13 -8
13 8 -2 40 -7 16 -14 21 -19 14 -4 -7 -10 1 -14 19 -7 34 0 56 16 47 5 -4 9
-1 9 4 0 14 -17 14 -25 1 -11 -18 -25 0 -25 33 l1 32 15 -25 c14 -24 14 -24 9
15 -4 22 -8 50 -11 61 -2 13 2 24 10 27 11 4 14 -4 11 -36 -4 -70 8 -74 21 -8
14 65 23 85 31 64 10 -29 44 -13 64 30 11 23 17 31 14 17 -3 -14 -8 -36 -11
-49 -3 -13 -10 -33 -15 -43 -6 -11 -12 -31 -14 -46 -1 -15 -3 -31 -4 -35 0 -5
-7 -5 -13 -2 -7 4 -6 1 3 -7 11 -9 18 -38 23 -90 6 -68 5 -77 -11 -81 -10 -3
8 -5 40 -6 38 -1 56 3 52 9 -4 6 -14 8 -23 6 -10 -3 -24 -1 -32 4 -13 8 -12
10 4 10 15 0 16 3 6 15 -7 9 -11 17 -9 19 7 7 49 -13 49 -24 0 -5 5 -10 10
-10 20 0 9 15 -26 38 -26 17 -34 28 -29 40 7 15 11 43 14 95 0 9 6 17 12 17 5
0 8 -4 4 -9 -3 -5 -2 -12 3 -15 4 -2 8 6 8 19 0 13 -4 21 -8 19 -16 -10 -8 4
22 37 16 19 32 42 35 51 4 11 12 15 23 11 14 -6 15 -4 5 8 -14 17 -2 41 18 37
8 -2 13 2 12 9 -2 7 4 10 12 7 11 -4 15 1 15 16 0 20 -2 21 -17 9 -15 -13 -15
-12 -3 8 8 12 18 19 22 17 4 -3 8 2 8 11 0 9 7 30 17 48 15 29 17 30 23 12 8
-22 3 -38 -9 -30 -4 2 -13 -12 -19 -33 -17 -54 -18 -74 -6 -79 7 -2 10 6 9 21
-4 37 5 66 21 66 8 0 14 7 14 16 0 13 3 14 14 5 19 -16 32 3 41 57 5 32 4 42
-7 42 -9 1 -7 5 5 14 16 12 16 14 1 20 -23 9 -24 8 -24 -19 0 -14 5 -25 12
-25 6 0 9 -3 5 -6 -3 -3 -15 -3 -26 1 -15 4 -21 14 -20 33 0 24 1 25 9 7 8
-19 9 -19 9 1 1 12 -6 25 -15 28 -9 4 -14 13 -10 22 3 8 2 13 -2 10 -4 -2 -16
2 -27 10 -14 10 -15 14 -4 15 8 0 24 2 37 5 12 2 22 -1 22 -7 0 -8 4 -8 14 0
10 8 16 9 21 1 7 -12 25 -4 25 11 0 6 -4 8 -8 5 -5 -3 -6 9 -4 27 3 18 1 29
-3 25 -4 -4 -14 -1 -21 7 -21 20 -17 25 10 12 15 -7 27 -23 30 -41 5 -23 10
-27 26 -23 19 5 21 1 19 -37 -2 -31 -7 -43 -17 -42 -8 1 -17 -5 -19 -11 -3 -7
2 -13 11 -13 9 0 16 -6 16 -12 -1 -18 -48 -244 -50 -238 -5 20 -4 101 3 103
10 3 31 126 23 134 -3 4 -12 1 -18 -5 -9 -9 -9 -12 1 -12 10 0 11 -3 3 -13 -6
-7 -9 -24 -6 -38 4 -22 3 -22 -6 -4 -8 17 -9 15 -7 -14 2 -29 -3 -36 -32 -52
-46 -24 -60 -39 -38 -39 9 0 17 5 17 12 0 6 2 9 5 6 8 -8 -6 -39 -15 -33 -5 3
-11 2 -14 -3 -2 -4 4 -9 15 -9 11 -1 19 5 19 14 0 14 2 14 19 -1 11 -10 18
-26 16 -37 -3 -12 0 -17 7 -13 14 9 1 -87 -14 -101 -8 -7 -9 -5 -5 7 5 15 -10
35 -42 53 -9 5 -12 4 -7 -3 4 -7 2 -12 -3 -12 -6 0 -11 6 -11 14 0 8 -4 18
-10 21 -7 4 -7 -3 0 -20 7 -20 7 -26 -2 -23 -6 2 -13 15 -15 29 -3 13 -6 31
-7 38 -2 8 -9 17 -16 19 -7 3 -10 0 -6 -6 10 -16 -15 -27 -26 -11 -8 12 -9 11
-5 -1 2 -8 11 -15 20 -15 20 0 35 -15 16 -16 -8 -1 -18 -2 -24 -4 -5 -1 -19
-3 -30 -4 -12 -1 -16 -4 -9 -9 6 -4 10 -14 9 -22 -1 -8 1 -24 5 -34 6 -18 8
-16 18 11 9 27 8 31 -4 26 -10 -4 -12 0 -8 10 7 20 28 12 43 -16 6 -12 9 -14
7 -4 -7 22 -1 22 37 -5 17 -12 27 -17 23 -10 -12 20 12 13 34 -10 23 -25 26
-43 8 -54 -8 -5 -9 -2 -5 9 3 9 1 19 -5 23 -7 5 -8 2 -3 -6 6 -10 4 -12 -11
-6 -16 6 -16 4 4 -17 23 -24 30 -43 12 -32 -6 3 -10 1 -10 -5 0 -6 -5 -8 -10
-5 -6 4 -10 12 -9 18 3 17 -11 47 -22 47 -4 0 -6 -8 -3 -18 5 -14 4 -14 -4 -2
-6 8 -9 17 -6 21 2 4 -4 13 -13 20 -14 12 -16 12 -8 0 6 -11 4 -13 -10 -7 -15
5 -16 4 -5 -9 15 -18 0 -20 -20 -3 -8 7 -4 1 9 -15 29 -32 33 -33 24 -10 -5
15 -3 16 7 6 16 -15 25 -57 10 -48 -5 3 -10 1 -10 -4 0 -13 10 -14 30 -1 10 6
21 4 34 -8 11 -9 16 -11 12 -5 -4 7 -2 13 4 13 6 0 10 -8 8 -17 -2 -10 -10
-17 -18 -15 -11 3 -11 0 0 -14 12 -14 12 -18 -1 -28 -9 -6 -14 -17 -11 -25 3
-8 0 -11 -7 -7 -7 5 -9 1 -4 -10 5 -13 3 -15 -7 -9 -10 6 -12 4 -7 -8 5 -13 1
-17 -16 -17 -18 0 -19 2 -7 11 12 9 11 9 -5 4 -11 -4 -41 -8 -67 -9 -27 0 -48
-4 -48 -8 0 -4 52 -7 114 -6 111 1 115 2 102 20 -15 21 -10 61 7 51 5 -3 7 -1
3 5 -3 5 -3 12 1 15 5 2 2 2 -6 0 -10 -2 -12 5 -6 34 4 21 8 44 8 51 0 6 4 12
9 12 5 0 8 8 6 17 -2 10 3 23 12 30 13 11 13 12 -4 13 -12 0 -16 5 -12 16 3 9
6 19 6 22 0 4 11 -9 24 -28 14 -21 23 -47 21 -63 -2 -15 1 -27 6 -27 4 0 5 -8
2 -17 -6 -15 -5 -16 9 -3 13 12 13 16 1 28 -18 19 -8 29 12 12 12 -10 15 -9
16 6 0 11 3 14 5 7 3 -6 -2 -25 -10 -42 -9 -16 -13 -38 -9 -47 5 -13 3 -15 -7
-9 -9 6 -11 4 -5 -5 4 -7 2 -16 -6 -22 -11 -7 -9 -8 5 -4 12 4 24 0 32 -11 9
-12 13 -14 14 -5 0 7 5 10 10 7 14 -9 13 8 -2 23 -7 7 -8 12 -4 12 5 0 15 -8
23 -18 14 -16 14 -16 9 2 -5 16 -4 17 8 7 13 -11 15 -7 13 23 -2 34 -17 64
-17 35 -1 -10 -4 -9 -11 4 -6 9 -15 15 -21 11 -7 -4 -7 0 0 12 5 11 7 25 4 33
-3 10 0 12 12 8 9 -4 16 -2 16 4 0 6 5 7 10 4 6 -3 10 1 10 10 0 11 -5 15 -16
11 -8 -3 -12 -2 -9 4 3 6 1 10 -5 10 -6 0 -8 5 -4 11 4 8 9 7 15 -2 6 -11 9
-9 15 5 11 28 23 -1 18 -46 -2 -21 1 -38 6 -38 6 0 10 15 11 33 l1 32 11 -30
c7 -16 18 -39 24 -50 13 -20 13 -20 32 2 10 12 21 20 24 17 3 -3 3 4 0 15 -3
12 -9 24 -14 27 -10 6 8 45 25 56 8 5 7 11 -2 20 -9 9 -12 9 -12 0 0 -7 -11
-1 -26 13 -14 14 -22 30 -19 35 3 6 2 10 -4 10 -6 0 -9 13 -8 29 3 36 12 31
22 -11 7 -29 9 -30 12 -10 l5 23 19 -22 c10 -12 20 -18 20 -13 1 5 3 19 4 32
3 26 15 42 16 21 1 -8 2 -21 3 -29 2 -8 3 -23 4 -32 1 -10 6 -18 12 -18 6 0 5
10 -2 25 -9 20 -9 28 2 38 10 10 11 9 5 -2 -5 -9 -4 -12 3 -7 7 4 12 14 12 22
0 8 5 14 11 14 5 0 8 4 5 9 -3 5 2 8 11 7 9 0 17 5 19 12 1 7 0 8 -3 2 -3 -8
-9 -8 -18 0 -17 14 0 70 22 70 8 0 11 5 8 10 -3 6 -1 11 4 11 39 5 40 5 26 40
-4 10 3 19 21 28 l27 12 -17 -26 c-9 -14 -14 -30 -11 -36 4 -5 2 -16 -4 -23
-6 -7 -9 -21 -5 -30 7 -18 39 -22 49 -6 12 19 26 10 20 -11 -5 -15 -4 -19 4
-15 13 9 14 0 2 -40 -10 -35 2 -71 13 -38 3 11 6 24 6 29 1 6 8 20 15 32 8 12
16 30 18 40 4 27 32 64 42 55 5 -4 5 -1 1 6 -12 20 13 43 33 32 10 -5 23 -5
32 1 20 13 29 11 29 -6 0 -9 -6 -12 -15 -9 -9 4 -15 0 -15 -10 0 -10 5 -13 17
-9 12 5 14 3 8 -7 -5 -8 -4 -11 2 -7 6 4 13 18 15 31 4 17 -1 27 -16 35 -19
11 -19 11 7 8 24 -4 26 -2 15 12 -12 15 -11 15 7 0 11 -9 26 -14 34 -11 12 4
12 3 0 -11 -8 -8 -18 -13 -22 -10 -5 3 -7 -3 -5 -13 2 -11 11 -18 20 -18 10 1
14 -4 11 -12 -4 -10 -10 -11 -23 -4 -15 8 -17 6 -12 -12 3 -14 1 -19 -6 -14
-7 4 -12 1 -12 -8 0 -10 -8 -13 -30 -11 -16 2 -32 0 -35 -6 -4 -5 1 -9 10 -9
10 0 13 -5 9 -13 -4 -6 2 -3 14 7 12 11 22 14 22 8 0 -6 -5 -14 -10 -17 -6 -4
-8 -11 -4 -16 8 -14 24 -1 24 21 0 10 13 28 30 40 16 12 30 18 30 14 0 -3 7
-1 15 6 16 13 59 4 49 -11 -3 -6 -12 -5 -22 3 -15 11 -15 11 -5 -2 6 -8 13
-19 15 -25 1 -5 12 -11 23 -13 26 -4 53 -30 40 -40 -18 -13 -28 -95 -11 -89 6
2 10 13 8 23 -2 16 -1 17 7 4 15 -22 14 -28 -9 -35 -13 -4 -17 -11 -13 -18 19
-30 30 -76 20 -86 -6 -6 -7 -14 -2 -18 4 -5 10 -2 12 5 9 25 19 11 15 -23 -3
-22 0 -35 7 -35 7 0 10 -4 7 -9 -4 -5 -3 -16 0 -25 5 -14 10 -12 30 11 17 20
26 25 35 16 11 -11 5 -51 -17 -132 -5 -17 -4 -22 4 -17 8 5 12 -1 13 -16 l0
-23 11 23 c6 12 16 22 22 22 6 0 5 -5 -2 -12 -20 -20 -14 -24 35 -27 43 -2 45
-1 32 15 -17 20 -29 174 -14 174 6 0 5 4 -1 8 -16 9 -37 89 -28 104 4 6 3 8
-3 5 -5 -3 -18 17 -28 46 -10 29 -31 78 -47 109 l-28 58 30 -4 c20 -2 30 1 30
10 0 17 17 18 23 2 4 -10 6 -10 6 0 1 7 6 10 13 6 7 -4 8 -3 4 4 -4 7 -17 12
-28 12 -27 0 -18 10 13 15 74 12 74 12 71 -21 -1 -16 2 -41 8 -55 9 -21 9 -20
4 10 -4 23 -3 31 5 27 6 -4 11 -2 11 4 0 6 5 8 12 4 6 -4 8 -3 5 3 -4 6 7 16
23 23 17 7 30 17 30 22 0 6 6 8 14 5 8 -3 16 -2 18 3 2 5 10 10 18 12 25 5 70
69 70 99 0 15 3 35 7 45 5 13 3 16 -10 11 -17 -6 -47 40 -47 74 0 16 2 16 33
2 17 -9 55 -36 84 -60 28 -23 60 -43 71 -43 11 0 28 -7 36 -16 9 -8 44 -25 78
-36 35 -12 79 -34 99 -49 20 -16 38 -27 40 -25 2 3 4 -9 4 -25 0 -19 -5 -29
-15 -29 -12 -1 -11 -3 3 -11 25 -14 21 -24 -10 -27 -22 -1 -25 0 -13 8 11 7 8
9 -15 8 -16 -1 -36 -6 -43 -11 -9 -7 -11 -5 -6 8 6 15 3 17 -14 13 -20 -6 -22
-3 -17 35 5 37 4 39 -6 19 -8 -15 -18 -21 -28 -16 -54 22 -62 -4 -12 -38 19
-13 34 -26 33 -31 -2 -4 10 -19 25 -34 16 -14 20 -20 11 -13 -9 6 -22 9 -28 5
-5 -3 -10 -3 -10 2 0 4 -14 9 -31 10 -18 1 -39 9 -49 18 -9 8 -20 12 -23 8 -4
-3 -7 -1 -7 6 0 8 -7 11 -15 7 -8 -3 -28 0 -43 6 -15 6 -40 12 -57 14 -16 1
-40 5 -52 9 -16 5 -21 3 -20 -11 1 -10 -5 -19 -13 -19 -8 0 -17 -14 -21 -32
-6 -30 -5 -31 19 -22 29 11 41 4 24 -13 -16 -16 -15 -31 1 -25 9 3 12 -9 12
-49 -1 -30 2 -54 7 -54 4 0 4 -7 1 -17 -4 -11 -3 -14 5 -9 7 4 12 21 12 37 0
19 4 28 11 24 6 -4 8 -9 5 -12 -3 -3 -1 -14 4 -24 7 -12 7 -20 0 -24 -5 -3 -9
-34 -9 -68 l1 -62 9 45 c25 137 40 132 20 -8 -6 -44 -5 -52 8 -50 12 2 15 -5
13 -27 -4 -51 -5 -54 -13 -50 -3 3 -9 -5 -12 -16 -4 -13 -10 -18 -17 -14 -8 5
-9 10 -2 14 6 4 7 12 3 20 -5 7 -7 30 -5 50 l3 36 -10 -37 c-6 -21 -16 -38
-21 -38 -6 0 -8 7 -5 15 4 8 1 17 -5 21 -11 7 -10 3 7 -83 5 -25 2 -32 -12
-36 -10 -3 84 -5 210 -6 l227 -1 0 32 c0 17 -8 41 -17 52 -16 19 -16 19 -1 7
16 -12 17 38 18 878 l0 892 -21 -11 c-19 -11 -20 -10 -14 10 5 15 0 29 -16 46
-19 20 -20 26 -9 37 9 9 11 9 6 0 -4 -7 2 -17 14 -23 17 -9 20 -8 20 8 0 10 3
22 8 27 4 6 6 9 4 8 -2 0 -27 9 -57 22 -29 13 -57 21 -61 17 -5 -4 -1 2 9 14
20 24 22 34 6 34 -7 0 -18 8 -25 18 -12 15 -13 15 -14 -10 0 -39 -16 -43 -24
-6 -4 21 -2 34 6 40 7 4 9 8 4 8 -5 0 -2 7 5 17 11 12 11 17 2 20 -9 3 -9 10
-1 28 6 14 15 22 19 19 5 -3 9 2 9 10 0 9 -4 16 -8 16 -12 0 -42 -68 -37 -82
3 -7 -6 -25 -20 -40 -14 -16 -22 -28 -18 -28 4 0 1 -5 -7 -11 -12 -9 -11 -10
8 -6 16 4 22 1 22 -11 0 -10 27 -48 60 -85 56 -63 60 -72 59 -115 0 -35 -3
-42 -9 -27 -8 19 -9 19 -9 1 -1 -16 -4 -15 -21 7 -22 27 -27 48 -8 29 18 -18
38 -15 38 6 0 14 -2 15 -10 2 -6 -10 -10 -11 -10 -2 0 6 -7 12 -15 12 -9 0
-12 6 -9 15 4 8 1 15 -4 15 -13 0 -24 -31 -19 -51 2 -8 2 -11 0 -6 -6 9 -23
-1 -23 -14 0 -5 6 -9 14 -9 8 0 17 -7 20 -16 9 -22 8 -24 -9 -18 -18 7 -20
-13 -5 -51 5 -14 14 -24 19 -20 6 3 6 -6 1 -25 -8 -27 -6 -31 16 -36 28 -7 32
-38 8 -65 -9 -10 -16 -34 -16 -55 0 -24 -3 -32 -8 -23 -6 8 -10 -9 -12 -46 -3
-56 -4 -60 -26 -57 -34 3 -77 -26 -95 -63 -8 -18 -28 -37 -46 -44 -26 -11 -31
-19 -36 -60 -8 -68 -36 -190 -44 -195 -4 -3 -6 19 -4 47 4 82 -6 93 -81 89
-75 -4 -109 9 -104 41 3 25 94 75 140 79 25 2 26 3 11 20 -9 10 -21 18 -26 18
-6 0 -19 7 -29 17 -16 14 -22 14 -43 3 -32 -17 -26 -24 8 -11 25 10 26 9 15
-14 -6 -14 -15 -25 -20 -25 -4 0 -17 -9 -28 -20 -12 -12 -36 -29 -54 -40 -33
-18 -35 -18 -124 4 -67 16 -96 29 -111 47 -11 13 -20 27 -21 32 0 4 -7 7 -16
7 -14 0 -16 -9 -10 -62 9 -74 21 -96 90 -163 39 -39 64 -53 106 -64 70 -18
180 -30 180 -19 0 4 8 8 18 8 14 0 15 -2 2 -10 -12 -8 -11 -10 8 -10 12 0 22
5 22 10 0 6 12 9 28 9 21 -1 22 -3 6 -6 -18 -3 -23 -16 -33 -73 -6 -38 -11
-81 -11 -97 0 -39 -34 -91 -68 -103 -15 -6 -36 -14 -47 -19 -76 -35 -158 -15
-232 55 -34 32 -40 45 -37 69 3 27 3 28 -4 5 -8 -24 -9 -24 -31 19 -21 39 -21
47 -10 93 13 58 6 140 -16 174 -19 29 -19 34 -1 34 8 0 17 4 20 9 7 10 -13 9
-30 -2 -18 -11 -45 28 -49 72 -3 32 0 41 12 41 10 0 13 -6 9 -16 -3 -8 -2 -12
4 -9 12 8 12 8 1 -33 -9 -28 -7 -32 10 -32 11 0 18 4 14 9 -3 5 3 12 12 14 14
4 12 5 -5 6 -20 1 -21 4 -12 21 6 12 7 20 1 20 -5 0 -7 9 -4 19 3 13 -2 21
-17 26 -26 8 -30 5 -40 -37 -7 -30 -8 -30 -9 -7 -1 36 35 81 59 74 10 -3 22 0
26 6 4 8 3 9 -4 5 -19 -12 -14 6 11 33 12 14 14 19 5 12 -21 -16 -22 -11 -6
24 9 19 9 28 0 37 -16 16 -15 25 2 25 8 0 12 -7 10 -16 -3 -9 1 -6 7 7 7 12
15 22 19 22 13 0 17 -69 5 -81 -7 -7 -5 -8 6 -4 12 4 19 -1 24 -22 5 -15 7
-35 6 -43 -2 -11 2 -11 16 4 13 13 15 20 5 23 -6 3 -10 8 -7 13 3 4 0 45 -6
89 -8 59 -8 89 0 109 6 15 12 38 14 52 3 19 17 32 58 53 51 26 60 27 147 23
51 -3 102 -10 113 -16 17 -10 89 -109 89 -125 0 -3 -11 -5 -23 -5 -13 0 -34
-9 -47 -20 -21 -18 -21 -20 -4 -20 15 0 16 -2 5 -9 -28 -18 61 -151 101 -151
5 0 -4 12 -21 26 -56 47 -67 139 -20 161 38 18 83 6 122 -33 l34 -34 36 33
c27 24 34 36 27 47 -14 21 -12 30 4 30 23 0 6 40 -20 46 -13 3 -26 15 -29 25
-4 10 -13 26 -22 35 -10 10 -12 18 -6 22 5 4 15 16 21 28 9 16 7 22 -8 32 -25
15 -17 34 26 67 21 16 32 20 28 10 -3 -8 -9 -15 -13 -15 -14 0 -51 -41 -46
-51 11 -16 30 -10 40 14 6 12 17 21 24 19 7 -1 10 2 6 8 -3 5 -3 10 2 10 4 0
16 11 25 25 18 23 18 24 -33 54 l-50 32 -26 -21 c-38 -29 -41 -16 -4 16 18 15
28 31 24 37 -4 7 8 0 26 -15 32 -28 61 -36 61 -19 0 18 -75 71 -95 69 -12 -2
-19 2 -17 10 1 8 -2 11 -8 7 -6 -3 -8 -10 -5 -15 2 -4 -6 -10 -20 -12 -30 -6
-32 3 -4 20 20 13 20 14 2 34 -15 18 -15 20 -2 15 9 -3 22 0 29 6 10 9 14 9
17 0 3 -7 12 -13 21 -13 15 0 15 2 2 10 -8 5 -10 10 -4 10 17 0 23 58 8 78 -8
9 -14 27 -14 40 l0 22 -738 0 -737 0 -14 -31 c-10 -23 -11 -37 -2 -55 6 -13 8
-32 5 -41 -4 -13 -3 -15 4 -5 14 20 91 28 96 11 2 -8 7 -23 12 -34 6 -18 7
-19 11 -2 5 18 25 20 24 2 0 -6 8 -14 18 -20 63 -35 121 -113 121 -162 0 -10
9 -24 20 -31 11 -7 20 -19 20 -27 0 -8 6 -12 13 -9 8 3 14 -2 14 -10 0 -8 -5
-12 -10 -9 -6 3 -7 1 -3 -5 4 -7 13 -12 20 -12 16 0 51 -38 43 -46 -3 -3 -14
4 -24 15 -9 12 -25 21 -35 21 -10 0 -18 7 -18 15 0 17 -18 19 -53 6 -24 -9
-24 -9 -15 31 8 37 1 69 -9 41 -8 -21 -41 -15 -54 10 -16 30 -30 37 -50 26
-24 -12 -29 -11 -29 6 0 8 -10 25 -23 38 -12 12 -22 28 -22 36 0 8 -6 16 -13
19 -6 2 -12 -1 -12 -8 0 -6 -5 -8 -10 -5 -8 5 -7 11 1 21 9 11 8 14 -4 14 -9
0 -19 -4 -22 -10 -10 -16 -35 -11 -35 7 0 13 -3 14 -12 5 -9 -9 -9 -21 0 -48
6 -21 7 -44 3 -53 -16 -31 -23 -73 -10 -66 8 6 8 2 0 -14 -7 -11 -14 -21 -17
-21 -3 0 -2 5 1 10 3 6 1 10 -4 10 -6 0 -10 -22 -10 -52 2 -88 -3 -108 -27
-127 -33 -26 -30 -29 19 -21 52 8 67 16 68 38 0 9 3 12 5 6 3 -7 33 -1 87 18
94 32 90 31 82 18 -4 -6 5 -10 20 -10 44 0 90 -28 136 -83 55 -63 82 -119 66
-129 -8 -5 -6 -8 5 -8 22 0 39 -32 28 -50 -5 -8 -7 -26 -4 -40 2 -14 -7 -2
-22 27 -24 49 -49 71 -63 57 -3 -4 -1 -9 6 -11 7 -2 10 -10 7 -17 -3 -7 8 -25
23 -40 15 -16 28 -33 28 -39 0 -6 11 -14 25 -17 24 -6 24 -6 -7 -19 -17 -7
-39 -21 -49 -32 -16 -18 -16 -19 4 -19 11 0 24 -4 27 -10 11 -18 27 -11 22 10
-6 23 11 27 19 5 4 -8 10 -12 15 -9 5 3 9 -4 9 -15 0 -11 -12 -27 -30 -37 -23
-14 -29 -24 -28 -50 1 -17 -9 -50 -20 -73 -12 -23 -22 -46 -22 -51 0 -5 -13
-23 -29 -40 -20 -23 -66 -47 -165 -86 -75 -30 -145 -54 -155 -54 -32 0 -109
37 -120 58 -6 12 -8 47 -4 86 l6 66 -47 49 c-43 46 -62 82 -34 65 8 -5 9 -2 5
9 -8 22 37 57 74 57 16 0 72 -7 124 -15 136 -22 183 -24 195 -10 6 7 20 11 31
8 11 -3 28 2 39 12 11 10 20 14 20 10 0 -4 11 14 26 40 28 54 26 89 -4 63 -13
-11 -44 -15 -131 -14 l-115 1 -19 35 c-19 37 -100 91 -133 89 -13 0 -8 -6 14
-15 18 -8 30 -19 27 -24 -3 -5 0 -7 8 -4 14 5 67 -48 67 -66 0 -33 -91 -55
-128 -31 -19 11 4 49 33 54 11 2 -6 5 -38 6 -55 1 -58 0 -56 -21 4 -26 -7 -48
-23 -48 -15 0 3 92 22 115 13 15 -7 25 -51 25 -20 0 -29 5 -31 18 -3 36 3 57
24 79 18 20 19 23 5 23 -14 0 -17 10 -17 56 0 44 5 62 25 88 14 18 25 41 26
52 0 11 3 13 6 6 2 -6 10 -9 16 -5 7 4 6 -1 -2 -10 -19 -24 1 -21 33 4 l28 22
-31 14 c-30 15 -52 54 -34 60 6 2 8 14 6 27 -4 19 -11 23 -34 22 -16 -1 -29 1
-29 5 0 10 30 20 40 14 5 -3 12 0 16 7 4 7 3 10 -1 5 -14 -12 -36 53 -29 88 4
24 2 34 -10 38 -9 4 -16 2 -16 -3 0 -6 -10 -10 -22 -9 -17 0 -19 2 -8 7 8 4
15 13 16 20 2 28 4 33 13 27 5 -3 12 -1 16 5 3 5 -2 10 -11 10 -17 0 -17 1 -1
13 11 8 15 20 11 35 -6 22 -9 22 -160 22 l-154 0 0 -860z m235 786 c-13 -10
-13 -15 9 -46 18 -27 21 -41 15 -58 -12 -31 -33 -23 -37 12 -2 17 -8 26 -16
23 -7 -3 -13 1 -13 9 0 9 9 12 26 9 14 -3 20 -2 14 1 -7 3 -13 12 -13 20 0 8
-3 13 -7 13 -22 -4 -24 3 -9 20 10 11 24 17 32 14 12 -5 12 -7 -1 -17z m921
-106 c18 0 64 37 67 54 4 20 4 19 6 -1 1 -16 -10 -30 -39 -48 -34 -22 -40 -30
-40 -60 0 -24 -6 -37 -19 -45 -29 -15 -31 -13 -31 21 0 27 -2 30 -15 19 -8 -7
-16 -27 -16 -44 -2 -31 -2 -31 -6 -3 -6 40 -27 28 -34 -19 -5 -29 -7 -20 -8
38 -1 68 2 79 19 90 13 8 20 24 20 42 0 26 22 55 43 56 4 0 7 -43 7 -96 0 -72
3 -95 13 -92 8 3 13 38 17 109 3 85 5 92 8 42 1 -35 5 -63 8 -63z m824 61 c0
-5 -9 -11 -20 -14 -20 -5 -26 3 -13 16 9 10 33 8 33 -2z m-1663 -223 c-3 -8
-6 -5 -6 6 -1 11 2 17 5 13 3 -3 4 -12 1 -19z m628 2 c4 -6 11 -8 16 -5 5 4
12 -7 15 -24 4 -17 10 -29 14 -26 4 3 14 -24 21 -60 7 -35 17 -61 22 -58 5 3
8 0 5 -8 -9 -26 -33 -15 -33 14 1 21 -5 29 -22 33 -13 4 -28 14 -33 23 -6 10
-9 12 -10 3 0 -7 -5 -10 -10 -7 -7 4 -7 12 0 25 12 23 13 33 1 26 -5 -4 -12 7
-16 24 -4 18 -13 30 -23 31 -14 0 -13 2 3 9 28 12 43 12 50 0z m-285 -115 c0
-5 -5 -3 -10 5 -5 8 -10 20 -10 25 0 6 5 3 10 -5 5 -8 10 -19 10 -25z m1490
-79 c0 -5 -7 -3 -15 4 -8 7 -15 20 -15 28 0 13 3 12 15 -4 8 -10 15 -23 15
-28z m-1157 -6 c3 -11 1 -18 -4 -14 -5 3 -9 12 -9 20 0 20 7 17 13 -6z m89
-58 c-16 -5 -53 17 -47 28 4 6 17 2 32 -7 14 -9 21 -19 15 -21z m-58 12 c3 -8
2 -12 -4 -9 -6 3 -10 10 -10 16 0 14 7 11 14 -7z m166 -24 c8 -5 11 -12 7 -16
-4 -4 4 -20 18 -34 21 -22 24 -31 16 -51 -5 -13 -12 -32 -15 -42 -6 -18 -8
-18 -40 2 -18 12 -43 21 -55 21 -25 0 -26 7 -5 31 18 20 10 61 -10 53 -7 -3
-19 2 -26 10 -14 18 -6 23 50 29 19 2 37 4 40 5 3 1 12 -2 20 -8z m-306 -176
c3 -8 2 -12 -4 -9 -6 3 -10 10 -10 16 0 14 7 11 14 -7z m93 -116 c-3 -8 -6 -5
-6 6 -1 11 2 17 5 13 3 -3 4 -12 1 -19z m328 -38 c3 -6 -1 -7 -9 -4 -18 7 -21
14 -7 14 6 0 13 -4 16 -10z m-338 -422 c-3 -8 -6 -5 -6 6 -1 11 2 17 5 13 3
-3 4 -12 1 -19z m-31 -24 c-10 -9 -16 -11 -16 -4 0 7 -7 10 -15 6 -25 -9 -17
2 13 18 31 16 42 4 18 -20z m129 -14 c10 -11 16 -20 13 -20 -3 0 -13 9 -23 20
-10 11 -16 20 -13 20 3 0 13 -9 23 -20z m-428 -32 c-3 -8 -6 -5 -6 6 -1 11 2
17 5 13 3 -3 4 -12 1 -19z m385 -13 c10 2 15 -2 11 -11 -3 -7 -10 -12 -15 -11
-6 1 -13 -4 -16 -12 -3 -8 0 -11 7 -7 7 5 9 1 4 -11 -5 -14 -4 -16 8 -7 8 6
21 14 30 17 13 4 16 1 12 -14 -3 -10 -10 -19 -16 -19 -6 0 -7 -3 -3 -7 4 -4
16 3 27 17 17 21 19 22 10 3 -15 -29 -14 -33 4 -27 8 4 13 9 11 13 -4 5 29 6
53 2 3 -1 -4 -7 -14 -15 -11 -8 -23 -12 -27 -10 -4 2 -9 0 -13 -6 -4 -6 -12
-7 -18 -3 -7 4 -21 9 -32 10 -10 2 -22 9 -26 15 -6 9 -11 9 -22 -1 -13 -10
-17 -9 -25 5 -7 12 -4 22 10 36 17 17 17 20 3 34 -13 13 -13 19 -3 31 11 14
13 13 18 -4 3 -12 12 -19 22 -18z m178 20 c-7 -8 -20 -15 -29 -15 -11 0 -8 5
9 14 33 19 35 19 20 1z m-85 -13 c-3 -3 -11 0 -18 7 -9 10 -8 11 6 5 10 -3 15
-9 12 -12z m-158 -14 c1 -12 -5 -18 -18 -18 -17 0 -26 20 -14 32 12 11 31 3
32 -14z m-349 -12 c-16 -31 -18 -32 -16 -4 1 13 8 25 15 25 9 0 9 -5 1 -21z
m-11 -56 c-2 -24 -12 -26 -21 -4 -3 8 -2 12 4 9 6 -3 10 -1 10 4 0 6 2 11 4
11 3 0 4 -9 3 -20z m73 16 c0 -2 -9 -6 -20 -9 -11 -3 -18 -1 -14 4 5 9 34 13
34 5z m327 -35 c17 17 39 -17 23 -36 -7 -8 -17 -12 -23 -8 -6 4 -29 6 -50 4
l-39 -3 23 31 c20 28 24 29 39 16 11 -10 20 -11 27 -4z m693 -18 c0 -7 -6 -13
-12 -13 -7 0 3 -8 22 -17 19 -9 36 -17 38 -18 1 -1 0 -10 -4 -19 -4 -9 -23
-19 -45 -22 -32 -5 -38 -10 -34 -24 3 -10 2 -21 -3 -24 -6 -3 -12 3 -15 13 -4
15 -13 18 -66 15 -69 -3 -70 -1 -43 63 10 26 23 43 34 43 16 0 19 -22 5 -36
-11 -11 -8 -26 3 -19 6 4 18 1 26 -6 8 -6 17 -9 21 -5 3 3 2 6 -4 6 -18 0 -2
56 20 66 30 14 57 13 57 -3z m112 -15 c-7 -7 -12 -8 -12 -2 0 14 12 26 19 19
2 -3 -1 -11 -7 -17z m-676 -13 c1 -8 -4 -11 -12 -8 -15 6 -18 16 -7 26 8 9 16
1 19 -18z m634 15 c0 -5 -4 -10 -10 -10 -5 0 -10 5 -10 10 0 6 5 10 10 10 6 0
10 -4 10 -10z m10 -25 c-7 -9 -15 -13 -17 -11 -6 6 20 36 26 30 2 -2 -2 -10
-9 -19z m-282 -10 c-3 -3 -9 2 -12 12 -6 14 -5 15 5 6 7 -7 10 -15 7 -18z
m-328 5 c-10 -6 -11 -10 -2 -10 6 0 12 -7 12 -16 0 -9 5 -12 12 -8 7 5 8 3 3
-6 -6 -10 -10 -10 -19 2 -10 14 -14 14 -30 2 -11 -7 -28 -12 -40 -9 -12 2 -23
4 -25 4 -2 1 4 10 13 20 10 11 25 17 35 14 11 -3 22 0 25 6 4 6 13 11 19 11 7
0 6 -4 -3 -10z m-470 -23 c0 -12 -46 -67 -55 -67 -3 0 5 20 17 45 20 40 38 51
38 22z m-138 -65 c-2 -36 0 -44 9 -32 8 12 9 10 4 -10 -3 -14 -7 -31 -7 -37
-1 -7 -5 -13 -10 -13 -5 0 -7 -4 -4 -9 9 -14 -4 -41 -20 -41 -8 0 -14 5 -14
11 0 5 4 8 9 5 4 -3 7 10 5 29 -1 23 1 33 8 29 7 -4 8 -2 4 5 -8 13 3 125 12
116 3 -3 5 -27 4 -53z m918 23 c40 -30 28 -32 -30 -6 -25 11 -37 21 -28 24 21
9 22 8 58 -18z m-398 -17 c-6 -6 -8 -17 -5 -26 5 -11 3 -13 -7 -7 -10 6 -12 4
-6 -11 4 -10 3 -15 -1 -10 -13 13 -10 56 5 56 7 0 10 5 6 12 -5 7 -3 8 5 3 9
-5 9 -11 3 -17z m258 12 c-8 -5 -19 -10 -25 -10 -5 0 -3 5 5 10 8 5 20 10 25
10 6 0 3 -5 -5 -10z m380 5 c0 -2 -9 -9 -20 -15 -12 -6 -20 -7 -20 -1 0 5 8
12 18 14 9 3 18 5 20 6 1 0 2 -1 2 -4z m-1120 -15 c8 -5 11 -10 5 -10 -5 0
-17 5 -25 10 -8 5 -10 10 -5 10 6 0 17 -5 25 -10z m159 -21 c-11 -7 -9 -9 7
-9 16 0 20 -6 18 -29 -1 -21 2 -28 11 -24 9 3 12 -2 8 -15 -6 -26 -66 -25 -71
1 -2 10 -8 14 -15 10 -20 -12 -36 -12 -44 0 -3 7 -3 9 2 5 13 -13 35 25 23 39
-7 9 -7 13 1 13 14 0 54 -22 63 -35 4 -6 8 -2 8 8 0 9 -6 17 -14 17 -8 0 -16
7 -20 15 -3 9 0 15 9 15 8 0 15 6 16 13 0 8 2 8 6 -2 3 -7 -1 -17 -8 -22z
m-332 -21 c-3 -7 -5 -2 -5 12 0 14 2 19 5 13 2 -7 2 -19 0 -25z m975 4 c4 -14
-1 -18 -23 -17 -26 0 -26 1 -11 17 22 22 29 22 34 0z m-942 -11 c0 -6 -5 -13
-10 -16 -6 -4 -7 -12 -4 -18 5 -9 4 -9 -5 -1 -6 6 -9 18 -5 27 7 18 24 23 24
8z m1470 -61 c0 -5 -4 -10 -10 -10 -5 0 -10 5 -10 10 0 6 5 10 10 10 6 0 10
-4 10 -10z m-43 -20 c23 0 23 -1 6 -19 -28 -30 -56 -31 -58 -1 -3 32 4 45 18
31 6 -6 22 -11 34 -11z m-1407 -17 c-1 -27 -1 -27 -15 -9 -19 25 -19 36 0 36
10 0 15 -10 15 -27z m1464 1 c8 -3 12 -12 9 -20 -4 -10 3 -14 21 -14 14 0 26
-4 26 -9 0 -18 -17 -20 -36 -6 -10 8 -29 15 -41 15 -23 0 -27 18 -8 32 12 9
10 9 29 2z m-1420 -50 c-2 -20 -9 -43 -14 -53 -8 -12 -9 -4 -4 29 3 25 8 48
11 53 9 15 12 6 7 -29z m23 23 c-3 -8 -1 -20 3 -28 5 -8 4 -19 -2 -26 -7 -9
-7 -13 1 -13 8 0 8 -6 -1 -20 -17 -27 -32 -1 -18 35 5 14 9 29 9 33 -3 15 1
32 7 32 3 0 4 -6 1 -13z m984 -91 c-6 -13 -29 52 -30 84 0 17 6 8 17 -25 10
-27 16 -54 13 -59z m-778 2 c4 -12 1 -18 -7 -18 -9 0 -12 -7 -9 -20 3 -11 9
-17 14 -14 5 3 6 -2 3 -10 -3 -9 -12 -16 -18 -16 -17 0 -40 51 -27 59 5 4 9
13 9 21 -1 8 0 24 0 35 2 19 2 19 15 0 8 -11 17 -28 20 -37z m1287 9 c0 21 30
2 36 -23 3 -13 13 -24 21 -24 8 0 13 -6 11 -12 -3 -7 -10 -13 -16 -13 -6 0
-17 -6 -24 -14 -9 -9 -9 -12 -1 -7 7 4 23 4 36 1 22 -6 24 -11 22 -53 -2 -28
2 -50 8 -54 8 -5 6 -8 -6 -8 -11 0 -15 -4 -11 -12 4 -7 3 -8 -5 -4 -6 4 -9 11
-7 15 3 4 0 13 -6 21 -8 12 -9 12 -4 -2 9 -29 -10 -29 -25 -1 -11 21 -11 27
-1 30 22 8 13 20 -15 19 -14 -1 -27 5 -29 12 -1 7 0 8 3 2 10 -21 24 -9 21 19
-1 16 4 36 12 46 12 14 12 18 -1 26 -8 5 -26 6 -41 3 -17 -3 -28 -1 -28 5 0 6
5 11 10 11 6 0 10 4 10 9 0 5 -9 7 -20 4 -27 -7 -25 6 2 16 17 6 26 4 35 -8 8
-10 12 -11 13 -4z m-1589 -34 c13 -15 12 -15 -8 -4 -24 12 -29 21 -14 21 5 0
15 -7 22 -17z m1499 13 c0 -3 -4 -8 -10 -11 -5 -3 -10 -1 -10 4 0 6 5 11 10
11 6 0 10 -2 10 -4z m-420 -25 c7 -15 6 -23 -6 -35 -11 -11 -12 -16 -3 -16 10
0 10 -3 1 -12 -18 -18 -25 -3 -17 41 8 46 10 49 25 22z m396 -45 c-7 -21 -16
-34 -20 -28 -7 11 22 78 29 70 2 -2 -2 -21 -9 -42z m104 30 c0 -2 -7 -7 -16
-10 -8 -3 -12 -2 -9 4 6 10 25 14 25 6z m-46 -17 c3 -3 -6 -6 -20 -7 -14 -1
-23 2 -20 7 6 9 31 9 40 0z m-24 -29 c0 -5 -4 -10 -9 -10 -6 0 -13 5 -16 10
-3 6 1 10 9 10 9 0 16 -4 16 -10z m40 4 c0 -8 -19 -13 -24 -6 -3 5 1 9 9 9 8
0 15 -2 15 -3z m-1586 -29 c-4 -8 -11 -12 -16 -9 -6 4 -5 10 3 15 19 12 19 11
13 -6z m1526 -62 c0 -21 -3 -24 -9 -14 -5 8 -7 20 -4 28 8 21 13 15 13 -14z
m70 17 c0 -5 -4 -10 -10 -10 -5 0 -10 5 -10 10 0 6 5 10 10 10 6 0 10 -4 10
-10z m-462 -14 c-7 -8 -15 -12 -17 -11 -5 6 10 25 20 25 5 0 4 -6 -3 -14z
m492 4 c0 -5 -2 -10 -4 -10 -3 0 -8 5 -11 10 -3 6 -1 10 4 10 6 0 11 -4 11
-10z m-450 -10 c0 -5 -4 -10 -10 -10 -5 0 -10 5 -10 10 0 6 5 10 10 10 6 0 10
-4 10 -10z m378 -26 c-2 -10 -11 -18 -21 -20 -9 -1 -15 2 -11 7 3 5 10 7 15 3
6 -3 10 0 8 7 -3 24 2 45 8 32 2 -7 3 -20 1 -29z m32 0 c0 -8 -4 -14 -8 -14
-4 0 -8 9 -8 19 0 11 4 17 8 15 4 -3 8 -12 8 -20z m-1559 -52 c-6 -11 -7 -22
-4 -26 3 -3 1 -6 -5 -6 -7 0 -12 2 -12 5 0 10 24 55 27 51 3 -2 0 -13 -6 -24z"/>
<path d="M1077 2143 c-4 -3 -7 -17 -7 -31 0 -21 2 -22 15 -12 8 7 15 21 15 31
0 19 -11 25 -23 12z"/>
<path d="M1056 2069 c-17 -14 -26 -30 -26 -49 l0 -29 35 20 c27 16 35 27 35
50 0 34 -8 36 -44 8z"/>
<path d="M1541 614 c0 -11 3 -14 6 -6 3 7 2 16 -1 19 -3 4 -6 -2 -5 -13z"/>
<path d="M1850 419 c0 -5 5 -7 10 -4 6 3 10 8 10 11 0 2 -4 4 -10 4 -5 0 -10
-5 -10 -11z"/>
<path d="M2050 193 c0 -14 2 -15 9 -4 7 11 10 9 16 -8 3 -11 11 -21 16 -21 12
0 11 7 -1 31 -13 24 -40 25 -40 2z"/>
<path d="M2141 2235 c-8 -90 -8 -96 6 -90 8 3 19 5 25 5 6 0 8 9 5 20 -5 18
-4 18 20 3 13 -9 27 -29 30 -45 10 -50 21 -30 21 38 0 60 -2 66 -25 75 -46 17
-62 12 -57 -18 6 -32 -11 -21 -19 12 l-5 20 -1 -20z"/>
<path d="M2061 2184 c0 -11 3 -14 6 -6 3 7 2 16 -1 19 -3 4 -6 -2 -5 -13z"/>
<path d="M1990 2071 c0 -6 4 -13 10 -16 6 -3 7 1 4 9 -7 18 -14 21 -14 7z"/>
<path d="M411 2046 c-8 -9 -11 -19 -7 -23 9 -9 29 13 24 27 -2 8 -8 7 -17 -4z"/>
<path d="M410 1970 c0 -8 -3 -25 -6 -37 -4 -15 -2 -23 6 -23 7 0 10 6 7 14 -3
8 -1 16 5 18 8 3 8 9 0 24 -8 14 -12 15 -12 4z"/>
<path d="M420 1805 c0 -8 -6 -12 -12 -10 -7 3 -24 -5 -38 -16 -14 -11 -19 -17
-11 -13 11 5 12 1 7 -20 -4 -18 -3 -26 7 -26 18 0 47 32 52 59 2 11 7 26 10
31 3 6 1 10 -4 10 -6 0 -11 -7 -11 -15z"/>
<path d="M330 1777 c0 -9 -4 -17 -10 -17 -5 0 -10 -4 -10 -10 0 -5 4 -10 9
-10 12 0 25 39 17 47 -3 4 -6 -1 -6 -10z"/>
<path d="M2055 1690 c3 -5 8 -10 11 -10 2 0 4 5 4 10 0 6 -5 10 -11 10 -5 0
-7 -4 -4 -10z"/>
<path d="M350 1659 c0 -5 5 -7 10 -4 6 3 10 8 10 11 0 2 -4 4 -10 4 -5 0 -10
-5 -10 -11z"/>
<path d="M486 1645 c-3 -8 -3 -15 0 -15 3 0 12 7 20 15 13 13 13 15 1 15 -8 0
-17 -7 -21 -15z"/>
<path d="M2107 1633 c-4 -3 -7 -11 -7 -17 0 -6 5 -5 12 2 6 6 9 14 7 17 -3 3
-9 2 -12 -2z"/>
<path d="M1593 1593 c9 -2 23 -2 30 0 6 3 -1 5 -18 5 -16 0 -22 -2 -12 -5z"/>
<path d="M1675 1589 c47 -18 64 -38 68 -83 l4 -41 1 41 c2 52 -21 82 -68 89
l-35 5 30 -11z"/>
<path d="M1522 1564 c-29 -25 -46 -54 -22 -39 9 6 14 -8 11 -28 -1 -5 3 -6 8
-3 5 4 12 0 15 -6 4 -7 4 1 2 18 -4 23 0 37 14 49 21 19 26 35 12 35 -5 0 -23
-12 -40 -26z"/>
<path d="M530 1576 c0 -21 32 -64 55 -74 33 -15 47 -15 69 1 17 13 17 14 1 30
-9 10 -32 17 -52 17 -20 0 -45 7 -55 17 -10 9 -18 13 -18 9z"/>
<path d="M446 1561 c-4 -6 7 -17 25 -26 22 -12 30 -13 27 -4 -7 20 -45 42 -52
30z"/>
<path d="M2028 1474 c-16 -8 -28 -21 -28 -28 0 -24 -40 -64 -70 -71 -29 -6
-30 -9 -24 -43 4 -21 8 -39 10 -41 8 -9 59 38 58 53 -1 9 3 13 8 10 6 -4 9 -1
6 7 -6 18 14 37 52 51 17 5 29 13 26 16 -3 3 -1 11 4 17 10 12 4 45 -9 45 -3
-1 -18 -8 -33 -16z"/>
<path d="M358 1463 c-12 -15 -9 -16 28 -10 37 6 69 1 118 -19 12 -5 17 -4 13
3 -6 10 -66 29 -119 37 -17 3 -32 -2 -40 -11z"/>
<path d="M1535 1450 c-12 -19 35 -60 69 -60 l31 1 -31 13 c-17 8 -38 24 -47
36 -10 14 -17 18 -22 10z"/>
<path d="M1717 1439 c-4 -16 -3 -18 9 -8 16 13 19 29 5 29 -5 0 -11 -9 -14
-21z"/>
<path d="M1673 1418 c4 -12 0 -18 -16 -21 -15 -3 -12 -5 11 -6 36 -1 39 3 15
27 -16 16 -16 16 -10 0z"/>
<path d="M1361 1386 c-9 -11 -9 -16 1 -22 7 -4 10 -4 6 1 -4 4 -3 14 3 22 6 7
9 13 6 13 -2 0 -10 -6 -16 -14z"/>
<path d="M1670 1367 c0 -21 11 -27 31 -16 27 14 23 29 -6 29 -14 0 -25 -6 -25
-13z"/>
<path d="M1816 1351 c-4 -7 -5 -15 -2 -18 9 -9 19 4 14 18 -4 11 -6 11 -12 0z"/>
<path d="M1322 1320 c14 -22 24 -19 15 5 -4 8 -11 15 -17 15 -6 0 -6 -7 2 -20z"/>
<path d="M885 1280 c-3 -6 -18 -7 -32 -4 -17 5 -24 3 -20 -3 10 -16 69 -23 63
-7 -3 7 0 15 7 18 9 3 9 5 0 5 -6 1 -15 -4 -18 -9z"/>
<path d="M916 1274 c-5 -14 -4 -15 9 -4 17 14 19 20 6 20 -5 0 -12 -7 -15 -16z"/>
<path d="M1778 1233 c6 -2 18 -2 25 0 6 3 1 5 -13 5 -14 0 -19 -2 -12 -5z"/>
<path d="M720 1199 c-19 -10 -28 -19 -20 -19 8 0 26 9 40 20 31 25 25 24 -20
-1z"/>
<path d="M832 1207 c-20 -12 -21 -15 -7 -32 14 -20 14 -20 15 2 0 12 8 27 18
32 25 15 1 13 -26 -2z"/>
<path d="M796 1149 c3 -5 12 -9 21 -9 19 0 9 13 -12 16 -8 1 -13 -2 -9 -7z"/>
<path d="M655 1089 c-16 -10 -38 -16 -48 -13 -15 5 -17 1 -11 -23 4 -15 11
-37 15 -48 8 -20 8 -20 8 0 1 10 18 36 38 57 42 43 41 54 -2 27z"/>
<path d="M803 1067 c-25 -32 -25 -37 1 -25 27 12 33 23 17 32 -5 3 -13 0 -18
-7z"/>
<path d="M1730 950 c0 -7 -8 -22 -17 -32 -15 -17 -15 -18 0 -13 17 7 33 42 23
52 -3 4 -6 0 -6 -7z"/>
<path d="M1674 819 c-4 -7 -3 -9 4 -5 5 3 13 0 15 -6 4 -9 6 -10 6 -1 1 17
-16 25 -25 12z"/>
<path d="M1730 798 c0 -5 -4 -6 -10 -3 -5 3 -10 2 -10 -4 0 -18 18 -21 34 -5
20 19 20 21 1 21 -8 0 -15 -4 -15 -9z"/>
<path d="M1687 766 c-4 -10 -1 -13 8 -9 8 3 12 9 9 14 -7 12 -11 11 -17 -5z"/>
<path d="M1866 728 c3 -4 9 -8 15 -8 5 0 9 4 9 8 0 5 -7 9 -15 9 -8 0 -12 -4
-9 -9z"/>
<path d="M1909 728 c-1 -7 -1 -19 0 -25 1 -7 -3 -13 -9 -13 -5 0 -10 -6 -10
-14 0 -7 -10 -17 -22 -21 -20 -6 -15 -10 40 -36 34 -16 62 -31 62 -34 0 -2
-27 5 -59 17 -59 21 -61 21 -100 3 -23 -10 -41 -22 -41 -27 0 -11 17 -10 25 2
4 6 11 7 17 3 7 -3 25 -8 42 -9 46 -4 114 -22 150 -41 17 -10 34 -16 39 -15 4
1 7 -3 7 -8 0 -6 9 -10 21 -10 30 0 14 17 -42 45 -45 23 -69 45 -34 31 11 -4
15 2 15 22 0 21 2 24 10 12 18 -28 9 5 -11 40 -14 24 -19 28 -15 12 2 -12 0
-20 -5 -16 -5 3 -9 1 -9 -5 0 -5 5 -13 10 -16 6 -3 10 -11 10 -17 0 -5 -9 0
-19 13 -14 17 -16 26 -8 31 9 6 9 8 1 8 -6 0 -17 -7 -24 -15 -15 -18 -45 -21
-33 -2 10 16 11 87 1 93 -4 3 -9 -1 -9 -8z"/>
<path d="M1940 706 c0 -2 7 -7 16 -10 8 -3 12 -2 9 4 -6 10 -25 14 -25 6z"/>
<path d="M500 680 c0 -5 5 -10 10 -10 6 0 10 5 10 10 0 6 -4 10 -10 10 -5 0
-10 -4 -10 -10z"/>
<path d="M2171 594 c0 -11 3 -14 6 -6 3 7 2 16 -1 19 -3 4 -6 -2 -5 -13z"/>
<path d="M2181 554 c0 -11 3 -14 6 -6 3 7 2 16 -1 19 -3 4 -6 -2 -5 -13z"/>
<path d="M931 534 c0 -11 3 -14 6 -6 3 7 2 16 -1 19 -3 4 -6 -2 -5 -13z"/>
<path d="M1145 541 c-3 -5 -2 -12 3 -15 5 -3 9 1 9 9 0 17 -3 19 -12 6z"/>
<path d="M1765 540 c-3 -5 -1 -10 4 -10 6 0 11 5 11 10 0 6 -2 10 -4 10 -3 0
-8 -4 -11 -10z"/>
<path d="M1099 533 c-1 -5 -1 -12 0 -16 1 -4 -4 -17 -10 -29 -8 -14 -8 -18 0
-14 7 5 9 1 5 -8 -3 -9 -10 -14 -14 -11 -5 3 -12 1 -15 -5 -4 -6 -1 -9 6 -8 6
2 14 -3 16 -10 3 -7 -1 -11 -9 -10 -7 2 -13 -5 -13 -14 0 -10 -6 -23 -13 -30
-6 -6 -12 -23 -12 -37 0 -21 -2 -23 -10 -11 -6 9 -10 10 -10 3 0 -6 -3 -20 -7
-30 -6 -15 -5 -16 9 -5 15 12 16 8 16 -30 1 -24 5 -54 11 -68 9 -23 10 -21 10
18 1 23 5 42 10 42 5 0 7 -10 3 -22 -3 -13 -1 -19 5 -15 6 4 17 -1 24 -10 12
-14 12 -16 0 -8 -11 6 -13 3 -8 -14 4 -18 3 -20 -9 -10 -12 10 -13 9 -8 -5 3
-9 10 -16 14 -16 5 0 7 -10 5 -21 -3 -12 -1 -18 3 -15 4 4 7 13 7 19 0 7 11
11 23 10 20 -3 21 -1 11 18 -10 20 -9 21 20 17 21 -3 31 0 31 8 0 8 -9 11 -21
9 -16 -3 -18 -1 -10 9 6 7 8 15 5 19 -3 3 0 16 7 29 10 19 10 21 -2 12 -21
-17 -48 -13 -55 8 -3 10 -11 18 -17 18 -7 0 -6 4 3 10 13 9 10 15 -15 36 -22
19 -24 23 -7 14 18 -9 23 -8 28 5 3 8 3 23 0 32 -4 10 -4 14 0 10 4 -4 14 2
21 13 15 21 33 19 33 -3 0 -7 -4 -6 -10 3 -8 13 -10 12 -10 -2 0 -10 7 -18 16
-18 8 0 12 -4 9 -10 -3 -5 -2 -10 3 -10 17 0 10 52 -8 70 -10 10 -20 16 -23
14 -2 -3 -7 3 -11 12 -4 12 -2 15 9 10 8 -3 15 -1 15 4 0 6 -9 10 -20 10 -18
0 -25 10 -21 33 0 4 -1 7 -4 7 -3 0 -6 -3 -6 -7z m-4 -153 c3 -5 1 -10 -4 -10
-6 0 -11 5 -11 10 0 6 2 10 4 10 3 0 8 -4 11 -10z m-18 -92 c-3 -8 -6 -5 -6 6
-1 11 2 17 5 13 3 -3 4 -12 1 -19z"/>
<path d="M1588 513 c5 -21 7 -23 10 -9 2 10 0 22 -6 28 -6 6 -7 0 -4 -19z"/>
<path d="M1678 514 c-3 -12 -2 -28 3 -35 12 -20 16 -8 9 26 -5 27 -6 28 -12 9z"/>
<path d="M40 500 c0 -5 5 -10 10 -10 6 0 10 5 10 10 0 6 -4 10 -10 10 -5 0
-10 -4 -10 -10z"/>
<path d="M886 484 c-3 -7 2 -10 15 -7 22 6 26 20 4 20 -8 0 -16 -6 -19 -13z"/>
<path d="M1355 480 c3 -5 8 -10 11 -10 2 0 4 5 4 10 0 6 -5 10 -11 10 -5 0 -7
-4 -4 -10z"/>
<path d="M1653 444 c0 -27 -3 -55 -7 -62 -10 -16 16 -133 29 -129 11 4 12 36
2 85 -5 24 -3 32 7 32 18 0 23 18 16 60 -5 30 -6 32 -12 13 -10 -35 -26 -27
-31 15 -4 28 -4 25 -4 -14z m34 -44 c-1 -12 -5 -16 -10 -11 -5 5 -6 14 -3 20
11 16 15 13 13 -9z"/>
<path d="M950 470 c0 -8 -3 -25 -6 -37 -4 -13 -2 -23 4 -23 13 0 23 53 11 65
-6 5 -9 4 -9 -5z"/>
<path d="M993 440 c-3 -11 -9 -20 -13 -20 -4 0 -8 -17 -8 -38 0 -21 -2 -42 -3
-48 -2 -5 0 -24 4 -43 5 -22 11 -31 21 -28 7 3 18 1 23 -4 5 -5 9 -1 10 10 1
14 -4 19 -18 16 -10 -2 -20 -1 -20 3 -8 49 -8 75 1 62 8 -12 10 -10 10 9 0 21
2 22 16 10 15 -12 16 -11 9 11 -4 14 -11 26 -15 28 -4 1 -5 14 -2 27 5 30 -8
34 -15 5z"/>
<path d="M72 383 c-2 -52 17 -49 21 3 1 16 7 32 12 36 6 4 1 8 -10 8 -18 0
-21 -7 -23 -47z"/>
<path d="M1195 421 c-3 -5 -2 -12 3 -15 5 -3 9 1 9 9 0 17 -3 19 -12 6z"/>
<path d="M942 365 c-15 -33 -15 -35 1 -35 8 0 14 12 14 30 0 17 -1 30 -2 30
-1 0 -7 -11 -13 -25z"/>
<path d="M1139 385 c-1 -3 -2 -9 -3 -14 0 -5 -4 -13 -8 -17 -5 -4 -8 -14 -7
-23 0 -15 19 19 25 47 2 11 -4 18 -7 7z"/>
<path d="M385 363 c-30 -14 -30 -14 -3 -8 23 4 27 2 22 -12 -5 -14 -4 -15 4
-4 5 7 15 17 22 21 24 15 -14 17 -45 3z"/>
<path d="M1193 355 c-3 -9 -3 -18 -1 -21 3 -3 8 4 11 16 6 23 -1 27 -10 5z"/>
<path d="M765 340 c3 -5 8 -10 11 -10 2 0 4 5 4 10 0 6 -5 10 -11 10 -5 0 -7
-4 -4 -10z"/>
<path d="M806 335 c4 -8 8 -15 10 -15 2 0 4 7 4 15 0 8 -4 15 -10 15 -5 0 -7
-7 -4 -15z"/>
<path d="M446 332 c-3 -5 1 -9 9 -9 8 0 12 4 9 9 -3 4 -7 8 -9 8 -2 0 -6 -4
-9 -8z"/>
<path d="M941 304 c0 -11 3 -14 6 -6 3 7 2 16 -1 19 -3 4 -6 -2 -5 -13z"/>
<path d="M86 281 c-4 -7 -5 -15 -2 -18 9 -9 19 4 14 18 -4 11 -6 11 -12 0z"/>
<path d="M245 280 c-3 -6 1 -7 9 -4 18 7 21 14 7 14 -6 0 -13 -4 -16 -10z"/>
<path d="M1693 260 c-7 -18 -7 -29 -1 -27 5 1 18 -24 29 -56 10 -32 22 -63 26
-70 4 -7 6 -23 4 -36 -1 -13 1 -21 7 -17 5 3 13 -1 16 -10 8 -21 8 -26 -2 -20
-5 3 -9 -1 -9 -9 0 -8 7 -15 15 -15 11 0 13 8 8 31 -5 29 -4 30 12 18 9 -7 6
0 -8 15 -14 16 -18 26 -10 22 9 -4 8 -1 -3 7 -11 9 -15 21 -10 32 4 12 3 16
-4 12 -6 -4 -9 3 -8 18 2 14 -2 23 -8 22 -7 -1 -12 8 -11 20 0 12 -3 20 -7 17
-10 -6 -22 53 -14 66 3 5 2 10 -2 10 -5 0 -14 -13 -20 -30z"/>
<path d="M1641 264 c0 -11 3 -14 6 -6 3 7 2 16 -1 19 -3 4 -6 -2 -5 -13z"/>
<path d="M255 251 c-6 -11 13 -26 22 -17 4 3 1 6 -6 6 -7 0 -9 5 -6 10 3 6 4
10 1 10 -3 0 -7 -4 -11 -9z"/>
<path d="M988 243 c6 -2 12 -11 12 -19 0 -8 7 -14 15 -14 8 0 15 6 15 14 0 14
-22 27 -43 25 -8 0 -8 -2 1 -6z"/>
<path d="M242 224 c10 -10 20 -16 22 -13 3 3 -5 11 -17 18 -21 13 -21 12 -5
-5z"/>
<path d="M931 224 c0 -11 3 -14 6 -6 3 7 2 16 -1 19 -3 4 -6 -2 -5 -13z"/>
<path d="M509 202 c-13 -25 -13 -29 3 -44 19 -19 24 -13 9 11 -6 9 -6 22 1 34
15 30 4 29 -13 -1z"/>
<path d="M319 198 c13 -18 7 -23 -21 -20 -3 1 -8 -4 -11 -11 -6 -16 65 -94 86
-94 9 0 14 4 11 9 -3 5 -9 6 -13 4 -4 -3 -25 12 -45 33 -31 31 -35 39 -21 45
9 3 13 2 10 -3 -3 -5 -1 -12 4 -16 6 -3 15 3 20 13 8 16 6 23 -12 38 -18 16
-19 16 -8 2z"/>
<path d="M625 191 c-6 -11 9 -23 19 -14 9 9 7 23 -3 23 -6 0 -12 -4 -16 -9z"/>
<path d="M990 190 c0 -5 5 -10 10 -10 6 0 10 5 10 10 0 6 -4 10 -10 10 -5 0
-10 -4 -10 -10z"/>
<path d="M1811 174 c0 -11 3 -14 6 -6 3 7 2 16 -1 19 -3 4 -6 -2 -5 -13z"/>
<path d="M200 176 c0 -2 7 -7 16 -10 8 -3 12 -2 9 4 -6 10 -25 14 -25 6z"/>
<path d="M1297 153 c-4 -3 -7 -13 -7 -22 1 -13 3 -13 11 2 11 19 8 33 -4 20z"/>
<path d="M121 134 c0 -11 3 -14 6 -6 3 7 2 16 -1 19 -3 4 -6 -2 -5 -13z"/>
<path d="M217 139 c7 -7 15 -10 18 -7 3 3 -2 9 -12 12 -14 6 -15 5 -6 -5z"/>
<path d="M1033 129 c-1 -10 2 -19 8 -19 11 0 12 27 1 34 -4 2 -9 -4 -9 -15z"/>
<path d="M1338 144 c-4 -3 0 -17 8 -32 8 -16 10 -28 4 -30 -6 -2 -10 -15 -10
-28 0 -14 -4 -23 -10 -19 -6 4 -6 15 0 31 13 33 13 33 -7 30 -9 -2 -19 -9 -21
-17 -3 -11 -1 -11 7 1 9 11 10 4 5 -29 -6 -39 -5 -44 10 -38 10 4 20 7 22 7 2
0 4 11 4 24 0 14 5 28 10 31 6 4 8 15 5 26 -4 13 -2 19 9 19 9 0 16 -4 16 -10
0 -5 4 -10 9 -10 5 0 7 8 4 19 -3 13 -11 17 -24 14 -10 -3 -19 0 -19 6 0 12
-13 15 -22 5z"/>
<path d="M300 105 c19 -19 36 -35 39 -35 3 0 -10 16 -29 35 -19 19 -36 35 -39
35 -3 0 10 -16 29 -35z"/>
<path d="M1180 119 c0 -18 2 -19 15 -9 8 7 15 16 15 21 0 5 -7 9 -15 9 -9 0
-15 -9 -15 -21z"/>
<path d="M1875 120 c2 -31 15 -37 15 -7 0 15 -4 27 -8 27 -5 0 -8 -9 -7 -20z"/>
<path d="M356 121 c-4 -5 -2 -12 3 -15 5 -4 12 -2 15 3 4 5 2 12 -3 15 -5 4
-12 2 -15 -3z"/>
<path d="M1103 110 c-14 -13 -23 -15 -25 -8 -3 8 -13 4 -28 -10 -13 -12 -20
-25 -17 -29 4 -3 7 -1 7 5 0 7 4 12 9 12 12 0 20 -49 10 -56 -20 -12 -6 -22
30 -21 22 0 39 3 39 6 -2 19 4 28 17 28 8 0 15 -4 15 -9 0 -4 -4 -8 -10 -8 -5
0 -10 -4 -10 -9 0 -4 29 -9 65 -10 41 -1 65 2 65 9 0 6 -4 9 -9 5 -6 -3 -14 3
-20 12 -9 17 -11 17 -24 -1 -9 -12 -20 -17 -31 -13 -20 8 -21 27 0 27 8 0 12
-4 9 -10 -3 -5 -1 -10 5 -10 18 0 6 24 -20 37 -20 10 -21 11 -4 16 14 4 15 5
3 6 -12 1 -15 8 -11 29 4 26 4 26 -12 7 -14 -18 -15 -18 -16 -2 0 22 -11 22
-37 -3z m-3 -51 c0 -6 -4 -7 -10 -4 -5 3 -10 11 -10 16 0 6 5 7 10 4 6 -3 10
-11 10 -16z"/>
<path d="M236 103 c28 -21 8 -26 -23 -6 -16 10 -8 -2 21 -29 27 -27 51 -46 53
-45 2 2 -6 12 -17 22 -11 10 -20 23 -20 28 0 6 14 -2 30 -18 24 -23 33 -26 43
-16 9 10 9 11 -4 6 -9 -3 -22 1 -29 10 -17 21 -5 31 17 14 10 -7 7 -1 -6 14
-28 31 -33 33 -25 12 4 -8 1 -15 -5 -15 -10 0 -15 12 -13 30 0 3 -8 6 -19 6
-19 0 -19 -1 -3 -13z"/>
<path d="M71 94 c0 -11 3 -14 6 -6 3 7 2 16 -1 19 -3 4 -6 -2 -5 -13z"/>
<path d="M350 46 c7 -7 13 -7 20 0 6 6 3 10 -10 10 -13 0 -16 -4 -10 -10z"/>
<path d="M496 52 c-3 -5 1 -9 9 -9 8 0 12 4 9 9 -3 4 -7 8 -9 8 -2 0 -6 -4 -9
-8z"/>
<path d="M539 47 c12 -15 12 -20 1 -30 -10 -9 -11 -9 -6 0 4 7 2 13 -3 13 -6
0 -11 -5 -11 -11 0 -6 -7 -9 -15 -5 -8 3 -15 1 -15 -4 0 -6 32 -10 72 -10 39
0 68 3 65 7 -4 3 -22 6 -42 5 -24 -1 -33 2 -29 12 3 7 -3 19 -13 27 -17 13
-17 13 -4 -4z"/>
<path d="M567 39 c4 -13 8 -18 11 -10 2 7 -1 18 -6 23 -8 8 -9 4 -5 -13z"/>
<path d="M2 30 c0 -14 2 -19 5 -12 2 6 2 18 0 25 -3 6 -5 1 -5 -13z"/>
<path d="M20 22 c0 -14 6 -22 16 -22 14 0 15 3 3 18 -7 9 -15 19 -16 21 -2 2
-3 -5 -3 -17z"/>
<path d="M1000 10 c0 -5 5 -10 10 -10 6 0 10 5 10 10 0 6 -4 10 -10 10 -5 0
-10 -4 -10 -10z"/>
</g>
</svg>
