<?xml version="1.0" encoding="UTF-8" standalone="no"?>
<!-- Created with Inkscape (http://www.inkscape.org/) -->

<svg
   version="1.1"
   id="svg42772"
   width="800"
   height="800"
   viewBox="0 0 800 800"
   sodipodi:docname="lemons-citrus-pd.svg"
   inkscape:version="1.2 (dc2aedaf03, 2022-05-15)"
   xmlns:inkscape="http://www.inkscape.org/namespaces/inkscape"
   xmlns:sodipodi="http://sodipodi.sourceforge.net/DTD/sodipodi-0.dtd"
   xmlns="http://www.w3.org/2000/svg"
   xmlns:svg="http://www.w3.org/2000/svg">
  <defs
     id="defs42776">
    <clipPath
       clipPathUnits="userSpaceOnUse"
       id="clipPath42790">
      <path
         d="M 0,600 H 600 V 0 H 0 Z"
         id="path42788" />
    </clipPath>
  </defs>
  <sodipodi:namedview
     id="namedview42774"
     pagecolor="#ffffff"
     bordercolor="#000000"
     borderopacity="0.25"
     inkscape:showpageshadow="2"
     inkscape:pageopacity="0.0"
     inkscape:pagecheckerboard="0"
     inkscape:deskcolor="#d1d1d1"
     showgrid="false"
     inkscape:zoom="1.04625"
     inkscape:cx="400"
     inkscape:cy="400.4779"
     inkscape:window-width="1920"
     inkscape:window-height="1017"
     inkscape:window-x="-8"
     inkscape:window-y="-8"
     inkscape:window-maximized="1"
     inkscape:current-layer="g42780">
    <inkscape:page
       x="0"
       y="0"
       id="page42778"
       width="800"
       height="800" />
  </sodipodi:namedview>
  <g
     id="g42780"
     inkscape:groupmode="layer"
     inkscape:label="Page 1"
     transform="matrix(1.3333333,0,0,-1.3333333,0,800)">
    <path
       d="M 1.431,0.715 H 600 V 600.001 H 1.431 Z"
       style="fill:#555647;fill-opacity:1;fill-rule:nonzero;stroke:none"
       id="path42782" />
    <g
       id="g42784">
      <g
         id="g42786"
         clip-path="url(#clipPath42790)">
        <g
           id="g42792"
           transform="translate(347.9736,111.5459)">
          <path
             d="m 0,0 c 117.146,0 212.692,55.885 212.692,124.405 0,68.52 -95.546,124.405 -212.692,124.405 -117.147,0 -212.692,-55.885 -212.692,-124.405 C -212.692,55.885 -117.147,0 0,0"
             style="fill:#414135;fill-opacity:1;fill-rule:evenodd;stroke:none"
             id="path42794" />
        </g>
        <g
           id="g42796"
           transform="translate(433.4121,303.4243)">
          <path
             d="m 0,0 c 40.733,3.854 80.274,4.492 115.204,-7.283 0.668,4.46 1.338,8.918 2.007,13.378 -6.076,2.899 -13.823,5.463 -20.734,5.685 -9.365,12.263 -8.195,28.704 -17.558,40.967 -28.64,102.225 -97.064,161.246 -180.831,166.227 -88.826,5.282 -193.824,-46.038 -247.731,-20.252 C -298.86,45.335 -142.918,-36.694 70.893,44.721 77.136,36.026 76.857,22.482 83.1,13.787 58.768,14.752 30.421,14.38 6.089,12.336 4.06,8.224 2.03,4.112 0,0"
             style="fill:#59c034;fill-opacity:1;fill-rule:evenodd;stroke:none"
             id="path42798" />
        </g>
        <g
           id="g42800"
           transform="translate(504.2764,356.3672)">
          <path
             d="m 0,0 c -24.199,83.988 -82.111,152.933 -173.233,158.351 -74.19,4.412 -173.184,-38.83 -234.652,-24.94 C -338.849,-43.987 -138.15,157.121 0,0"
             style="fill:#83cd2e;fill-opacity:1;fill-rule:evenodd;stroke:none"
             id="path42802" />
        </g>
        <g
           id="g42804"
           transform="translate(174.6318,352.0229)">
          <path
             d="m 0,0 c 22.263,39.896 69.159,67.387 123.412,67.387 51.589,0 96.521,-24.858 119.95,-61.602 8.558,-13.422 17.105,-24.078 28.345,-35.349 5.68,-5.698 9.233,-13.817 9.233,-22.828 0,-9.011 -3.553,-17.13 -9.233,-22.827 -11.24,-11.272 -19.787,-21.928 -28.345,-35.35 -23.429,-36.743 -68.361,-61.601 -119.95,-61.601 -54.253,0 -101.149,27.489 -123.412,67.386 -7.581,13.586 -17.229,23.481 -30.622,31.399 -8.324,4.921 -13.657,12.496 -13.657,20.993 0,8.498 5.333,16.074 13.657,20.993 C -17.229,-23.48 -7.582,-13.586 0,0"
             style="fill:#ecd209;fill-opacity:1;fill-rule:evenodd;stroke:none"
             id="path42806" />
        </g>
        <g
           id="g42808"
           transform="translate(246.9888,188.4248)">
          <path
             d="m 0,0 c -31.667,11.09 -57.5,32.188 -72.357,58.814 -7.581,13.586 -17.23,23.481 -30.622,31.399 -0.182,0.107 -0.362,0.216 -0.541,0.326 H 28.587 C 34.343,54.051 22.784,21.465 0,0"
             style="fill:#dcc510;fill-opacity:1;fill-rule:evenodd;stroke:none"
             id="path42810" />
        </g>
        <g
           id="g42812"
           transform="translate(174.6318,352.0229)">
          <path
             d="m 0,0 c 22.263,39.896 69.159,67.387 123.412,67.387 51.589,0 96.521,-24.858 119.95,-61.602 7.482,-11.734 14.953,-21.352 24.225,-31.118 -6.174,-43.996 -67.466,-78.547 -142.177,-78.547 -76.78,0 -139.386,36.488 -142.563,82.219 C -10.342,-15.614 -4.763,-8.537 0,0"
             style="fill:#f9dd06;fill-opacity:1;fill-rule:evenodd;stroke:none"
             id="path42814" />
        </g>
        <g
           id="g42816"
           transform="translate(276.46,249.3154)">
          <path
             d="M 0,0 C -34.341,3.438 -64.53,14.253 -85.925,29.648 H -0.884 C 0.732,19.405 0.978,9.47 0,0"
             style="fill:#ecd209;fill-opacity:1;fill-rule:evenodd;stroke:none"
             id="path42818" />
        </g>
        <g
           id="g42820"
           transform="translate(262.6733,407.4941)">
          <path
             d="M 0,0 C 30.46,6.979 55.152,-2.222 55.152,-20.55 55.152,-38.879 30.46,-59.395 0,-66.373 c -30.459,-6.979 -55.152,2.221 -55.152,20.551 0,18.328 24.693,38.844 55.152,45.822"
             style="fill:#fbf269;fill-opacity:1;fill-rule:evenodd;stroke:none"
             id="path42822" />
        </g>
        <g
           id="g42824"
           transform="translate(275.5757,278.9639)">
          <path
             d="m 0,0 c 0,-64.644 -52.404,-117.048 -117.048,-117.048 -64.643,0 -117.048,52.404 -117.048,117.048 z"
             style="fill:#ecd209;fill-opacity:1;fill-rule:evenodd;stroke:none"
             id="path42826" />
        </g>
        <g
           id="g42828"
           transform="translate(266.0449,278.9639)">
          <path
             d="m 0,0 c 0,-58.364 -48.137,-105.678 -107.517,-105.678 -59.38,0 -107.517,47.314 -107.517,105.678 z"
             style="fill:#f9e10c;fill-opacity:1;fill-rule:evenodd;stroke:none"
             id="path42830" />
        </g>
        <g
           id="g42832"
           transform="translate(256.5142,278.9639)">
          <path
             d="m 0,0 c 0,-51.82 -43.869,-93.829 -97.986,-93.829 -54.117,0 -97.986,42.009 -97.986,93.829 z"
             style="fill:#fefdec;fill-opacity:1;fill-rule:evenodd;stroke:none"
             id="path42834" />
        </g>
        <g
           id="g42836"
           transform="translate(73.8096,248.5303)">
          <path
             d="m 0,0 c 1.079,-2.752 3.095,-4.694 5.884,-5.672 2.791,-0.977 5.578,-0.716 8.138,0.763 l 35.635,20.574 c 2.137,1.233 3.143,3.662 2.504,6.045 -0.638,2.384 -2.725,3.984 -5.191,3.984 H 5.497 c -3.039,0 -5.654,-1.239 -7.58,-3.59 -1.926,-2.351 -2.625,-5.161 -2.026,-8.14 C -3.142,9.155 -1.76,4.489 0,0 m 27.584,-36.725 c 2.316,-1.809 5.018,-2.457 7.902,-1.898 2.884,0.562 5.146,2.176 6.615,4.721 L 61.74,0.113 c 1.233,2.135 0.89,4.743 -0.855,6.488 -1.744,1.745 -4.352,2.087 -6.488,0.854 L 19.872,-12.479 c -2.685,-1.549 -4.35,-4.003 -4.797,-7.072 -0.447,-3.068 0.447,-5.895 2.578,-8.147 3.067,-3.242 6.387,-6.261 9.931,-9.027 m 40.922,-18.081 c -4.127,0.716 -8.156,1.699 -12.068,2.932 -2.932,0.923 -5.074,2.93 -6.188,5.793 -1.114,2.866 -0.891,5.79 0.646,8.454 l 19.052,33 c 1.235,2.136 3.664,3.143 6.047,2.505 2.383,-0.64 3.984,-2.727 3.984,-5.193 v -37.836 c 0,-2.993 -1.199,-5.571 -3.49,-7.496 -2.29,-1.928 -5.034,-2.669 -7.983,-2.159 m 44.493,2.932 c 2.932,0.923 5.074,2.93 6.188,5.793 1.115,2.863 0.891,5.79 -0.646,8.451 L 99.489,-4.627 c -1.235,2.136 -3.664,3.143 -6.047,2.505 -2.383,-0.64 -3.983,-2.727 -3.983,-5.193 v -37.836 c 0,-2.993 1.198,-5.568 3.489,-7.496 2.29,-1.928 5.033,-2.669 7.983,-2.159 4.127,0.716 8.156,1.699 12.068,2.932 m 38.785,24.175 c 2.131,2.253 3.026,5.08 2.579,8.148 -0.448,3.069 -2.112,5.523 -4.797,7.072 L 115.04,7.455 c -2.136,1.233 -4.744,0.89 -6.488,-0.854 -1.744,-1.746 -2.088,-4.353 -0.854,-6.488 l 19.638,-34.015 c 1.47,-2.545 3.731,-4.159 6.615,-4.721 2.884,-0.559 5.586,0.089 7.902,1.895 3.543,2.767 6.864,5.788 9.931,9.029 m 21.761,41.662 C 172.579,9.155 171.196,4.489 169.436,0 c -1.078,-2.752 -3.094,-4.694 -5.885,-5.672 -2.789,-0.975 -5.576,-0.716 -8.137,0.763 l -35.633,20.574 c -2.138,1.233 -3.144,3.662 -2.505,6.045 0.638,2.384 2.724,3.984 5.191,3.984 h 41.472 c 3.04,0 5.655,-1.239 7.581,-3.59 1.926,-2.352 2.624,-5.162 2.025,-8.141"
             style="fill:#f9ed42;fill-opacity:1;fill-rule:evenodd;stroke:none"
             id="path42838" />
        </g>
        <g
           id="g42840"
           transform="translate(273.4224,104.0049)">
          <path
             d="m 0,0 c 1.395,-0.936 2.81,-1.855 4.246,-2.753 43.535,-27.262 94.589,-30.027 133.777,-11.398 14.314,6.803 27.157,11.28 42.598,14.853 7.804,1.805 15.093,6.778 19.854,14.383 4.763,7.605 6.055,16.335 4.271,24.144 -3.529,15.452 -5.11,28.96 -5.24,44.807 -0.355,43.39 -25.138,88.111 -68.673,115.371 -1.435,0.898 -2.879,1.772 -4.33,2.617 z"
             style="fill:#f9ec3b;fill-opacity:1;fill-rule:evenodd;stroke:none"
             id="path42842" />
        </g>
        <g
           id="g42844"
           transform="translate(273.4224,104.0049)">
          <path
             d="m 0,0 c 1.395,-0.936 2.81,-1.855 4.246,-2.753 43.535,-27.262 94.589,-30.027 133.777,-11.398 14.314,6.803 27.157,11.28 42.598,14.853 7.804,1.805 15.093,6.778 19.854,14.383 C 197.442,10.24 191.71,7.751 184.996,7.69 171.717,7.569 160.917,6.355 149.177,3.662 117.033,-3.716 70.745,6.659 27.21,33.922 c -1.435,0.896 -2.857,1.807 -4.261,2.726 z"
             style="fill:#f9dd06;fill-opacity:1;fill-rule:evenodd;stroke:none"
             id="path42846" />
        </g>
        <g
           id="g42848"
           transform="translate(296.4614,230.1963)">
          <path
             d="M 0,0 C -34.951,-55.815 -45.28,-112.337 -23.071,-126.242 -0.862,-140.15 45.474,-106.175 80.424,-50.359 115.375,5.456 125.705,61.978 103.496,75.883 81.287,89.789 34.951,55.816 0,0"
             style="fill:#d8c111;fill-opacity:1;fill-rule:evenodd;stroke:none"
             id="path42850" />
        </g>
        <g
           id="g42852"
           transform="translate(300.3672,227.751)">
          <path
             d="m 0,0 c -32.103,-51.271 -41.875,-103.013 -21.823,-115.568 20.05,-12.556 62.331,18.829 94.436,70.1 C 104.717,5.803 114.488,57.544 94.436,70.1 74.386,82.655 32.104,51.27 0,0"
             style="fill:#f9e10c;fill-opacity:1;fill-rule:evenodd;stroke:none"
             id="path42854" />
        </g>
        <g
           id="g42856"
           transform="translate(304.4375,225.2021)">
          <path
             d="m 0,0 c -29.259,-46.725 -38.544,-93.642 -20.742,-104.79 17.806,-11.148 55.956,17.693 85.215,64.419 29.258,46.726 38.544,93.643 20.74,104.79 C 67.41,75.567 29.259,46.726 0,0"
             style="fill:#fefdec;fill-opacity:1;fill-rule:evenodd;stroke:none"
             id="path42858" />
        </g>
        <g
           id="g42860"
           transform="translate(323.6855,247.1416)">
          <path
             d="M 0,0 C 1.903,2.333 3.75,3.751 5.337,4.097 6.924,4.443 7.809,3.621 7.892,1.722 l 1.036,-23.551 c 0.067,-1.525 -0.901,-3.84 -2.408,-5.759 -1.508,-1.921 -3.09,-2.853 -3.938,-2.324 l -12.998,8.141 c -1.028,0.643 -1.265,2.233 -0.69,4.625 0.576,2.392 1.804,4.919 3.575,7.357 C -5.055,-6.38 -2.537,-3.112 0,0 m 29.275,28.287 c 1.926,1.357 3.382,1.521 4.194,0.475 0.812,-1.047 0.756,-3.012 -0.163,-5.664 L 21.487,-11.001 c -0.731,-2.109 -2.258,-4.286 -3.8,-5.419 -1.543,-1.13 -2.625,-0.865 -2.692,0.658 L 13.927,8.514 c -0.08,1.814 0.588,4.116 1.955,6.726 1.366,2.611 3.051,4.805 4.924,6.414 2.865,2.465 5.697,4.684 8.469,6.633 m 26.08,9.828 c 1.347,-0.124 1.935,-1.332 1.701,-3.501 -0.233,-2.168 -1.222,-4.692 -2.864,-7.317 L 31.769,-8.512 c -1.333,-2.131 -3.011,-3.588 -4.175,-3.625 -1.164,-0.04 -1.454,1.353 -0.723,3.462 L 39.067,26.52 c 0.877,2.528 2.294,4.991 4.139,7.19 1.844,2.199 3.601,3.521 5.13,3.86 2.494,0.555 4.845,0.744 7.019,0.545 M 69.248,24.477 c 0.362,-1.524 -0.06,-3.682 -1.233,-6.301 -1.173,-2.62 -2.769,-4.97 -4.662,-6.862 L 37.02,-15.028 c -1.58,-1.58 -2.958,-1.926 -3.433,-0.863 -0.473,1.065 0.105,3.21 1.438,5.339 l 22.423,35.809 c 1.644,2.625 3.483,4.616 5.332,5.774 1.849,1.157 3.193,1.157 3.893,-0.003 1.128,-1.869 1.983,-4.066 2.575,-6.551 M 66.952,-7.24 c 0.965,3.654 1.724,7.171 2.267,10.515 0.379,2.326 -0.109,3.706 -1.405,3.98 C 66.519,7.529 64.775,6.619 62.791,4.636 L 37.276,-20.888 c -1.579,-1.58 -2.871,-3.904 -3.213,-5.787 -0.344,-1.88 0.365,-2.738 1.766,-2.133 l 22.304,9.64 c 1.669,0.722 3.446,2.327 5.198,4.697 1.752,2.369 2.99,4.842 3.621,7.231 M 51.038,-46.464 c -1.419,-2.656 -3.156,-4.865 -5.056,-6.43 -1.901,-1.561 -3.435,-2.041 -4.464,-1.4 l -12.998,8.141 c -0.848,0.531 -0.699,2.36 0.371,4.556 1.068,2.195 2.727,4.078 4.129,4.681 l 21.637,9.354 c 1.747,0.753 2.873,0.317 3.254,-1.262 0.382,-1.578 -0.087,-3.86 -1.355,-6.588 -1.693,-3.645 -3.532,-7.334 -5.518,-11.052 M 25.977,-84.25 c 2.537,3.113 5.054,6.381 7.531,9.791 1.77,2.436 2.998,4.963 3.575,7.357 0.576,2.391 0.338,3.98 -0.69,4.625 l -12.998,8.138 c -0.848,0.53 -2.43,-0.402 -3.938,-2.323 -1.508,-1.918 -2.475,-4.233 -2.408,-5.757 l 1.036,-23.553 c 0.084,-1.897 0.968,-2.721 2.555,-2.375 1.586,0.346 3.433,1.764 5.337,4.097 m -29.276,-28.289 c 2.773,1.951 5.605,4.171 8.47,6.635 1.874,1.609 3.558,3.803 4.924,6.414 1.367,2.611 2.035,4.911 1.956,6.727 l -1.069,24.273 c -0.068,1.527 -1.149,1.79 -2.691,0.66 -1.543,-1.132 -3.07,-3.309 -3.801,-5.419 l -11.819,-34.099 c -0.92,-2.651 -0.976,-4.617 -0.164,-5.664 0.812,-1.046 2.268,-0.882 4.194,0.473 m -26.078,-9.826 c 2.173,-0.199 4.524,-0.01 7.018,0.544 1.528,0.341 3.286,1.663 5.131,3.861 1.843,2.199 3.259,4.66 4.136,7.191 l 12.197,35.193 c 0.732,2.11 0.442,3.503 -0.722,3.465 -1.164,-0.041 -2.842,-1.496 -4.175,-3.627 l -22.423,-35.808 c -1.642,-2.625 -2.631,-5.15 -2.866,-7.318 -0.232,-2.169 0.356,-3.377 1.704,-3.501 m -13.894,13.638 c 0.591,-2.485 1.446,-4.681 2.576,-6.551 0.699,-1.157 2.042,-1.16 3.891,-0.003 1.849,1.158 3.689,3.149 5.333,5.775 l 22.422,35.808 c 1.333,2.13 1.912,4.276 1.439,5.34 -0.475,1.064 -1.853,0.717 -3.433,-0.862 l -26.333,-26.342 c -1.894,-1.893 -3.489,-4.244 -4.663,-6.862 -1.173,-2.621 -1.595,-4.779 -1.232,-6.303 m 2.296,31.717 c 0.63,2.389 1.869,4.864 3.622,7.232 1.751,2.37 3.527,3.975 5.197,4.695 l 22.304,9.64 c 1.401,0.606 2.111,-0.251 1.767,-2.134 -0.345,-1.88 -1.636,-4.205 -3.215,-5.784 l -25.514,-25.522 c -1.985,-1.986 -3.728,-2.893 -5.023,-2.621 -1.297,0.274 -1.784,1.653 -1.405,3.979 0.543,3.345 1.301,6.861 2.267,10.515 m 15.915,39.225 c -1.987,-3.718 -3.827,-7.407 -5.519,-11.052 -1.268,-2.729 -1.738,-5.01 -1.356,-6.589 0.381,-1.58 1.509,-2.014 3.254,-1.261 l 21.639,9.354 c 1.4,0.604 3.06,2.484 4.128,4.68 1.069,2.194 1.219,4.026 0.37,4.557 l -12.998,8.139 c -1.028,0.645 -2.56,0.163 -4.462,-1.4 -1.9,-1.564 -3.639,-3.772 -5.056,-6.428"
             style="fill:#f9ed42;fill-opacity:1;fill-rule:evenodd;stroke:none"
             id="path42862" />
        </g>
      </g>
    </g>
  </g>
</svg>
